<svg width="1138" height="832" viewBox="0 0 1138 832" fill="none" xmlns="http://www.w3.org/2000/svg">
<path d="M592 556.929V829H595.72L639.43 749.762V556.929V512.667V442.095L707.63 533.095H710.73L680.66 442.095L650.59 356.357H653.38L707.63 396.286L773.97 442.095H778L707.63 356.357L646.87 283L639.43 311.786L628.27 331.595L610.91 348L592 356.357V556.929Z" fill="#17151A" stroke="black"/>
<path d="M589 61.404L665.206 1L667.684 3.47811L626.174 67.5993H876.166H930.067H987.686H1039.73H1124.92L1137 98.5758L1039.73 198.32L1013.09 224.03H987.686L876.166 198.32L794.074 180.354L718.178 163.316L683.173 156.192L638.255 145.35V167.963L663.037 178.185L718.178 198.32L794.074 227.438L876.166 259.034L930.067 280.098V303.33L876.166 329.66L794.074 369H771.77L718.178 313.552L631.44 221.862L589 178.185V156.192V61.404Z" fill="#17151A" stroke="black"/>
<path d="M548 61.2787L472.2 1L469.725 3.47297L511.492 68.0794H248.511H106.192H13.0662L1 98.3733L123.827 222.64H150.744L310.08 187.091L445.283 156.797L500.354 145.36V166.998L417.128 198.22L343.184 226.659L245.417 264.681L206.744 281.064V302.084L245.417 320.632L343.184 367H367.317L410.322 320.632L511.492 215.53L548 176.89V61.2787Z" fill="#17151A" stroke="black"/>
<path d="M544 831H540.899L495.932 750.148V610.747V529.585V441.917L428.637 533.612L426.776 534.851L425.226 533.612L468.332 404.743L483.527 357.347L362.272 441.917L359.481 444.705L357 441.917L466.471 307.782L489.73 283L495.932 309.951L503.065 324.82L509.887 334.733L527.564 349.912L544 357.347V437.27V610.747V746.12V831Z" fill="#17151A" stroke="black"/>
</svg>
