<svg width="25" height="17" viewBox="0 0 25 17" fill="none" xmlns="http://www.w3.org/2000/svg">
<path d="M8.1875 0.65625V1.9375C6.35417 2.89583 5.04167 3.89583 4.25 4.9375C3.45833 5.97917 3.0625 7.11458 3.0625 8.34375C3.0625 9.07292 3.16667 9.57292 3.375 9.84375C3.5625 10.1354 3.79167 10.2812 4.0625 10.2812C4.33333 10.2812 4.69792 10.2083 5.15625 10.0625C5.61458 9.89583 6.03125 9.8125 6.40625 9.8125C7.26042 9.8125 8 10.1354 8.625 10.7812C9.27083 11.4062 9.59375 12.1771 9.59375 13.0938C9.59375 14.0938 9.20833 14.9583 8.4375 15.6875C7.66667 16.3958 6.70833 16.75 5.5625 16.75C4.16667 16.75 2.90625 16.1458 1.78125 14.9375C0.65625 13.7292 0.09375 12.2396 0.09375 10.4688C0.09375 8.38542 0.78125 6.44792 2.15625 4.65625C3.55208 2.84375 5.5625 1.51042 8.1875 0.65625ZM23.0938 0.75V1.9375C20.9896 3.14583 19.6042 4.22917 18.9375 5.1875C18.2708 6.14583 17.9375 7.27083 17.9375 8.5625C17.9375 9.14583 18.0521 9.58333 18.2812 9.875C18.5104 10.1667 18.75 10.3125 19 10.3125C19.2292 10.3125 19.5729 10.2292 20.0312 10.0625C20.4896 9.89583 20.9479 9.8125 21.4062 9.8125C22.2604 9.8125 23 10.125 23.625 10.75C24.2708 11.3542 24.5938 12.1042 24.5938 13C24.5938 14.0208 24.1875 14.9062 23.375 15.6562C22.5833 16.4062 21.6042 16.7812 20.4375 16.7812C19.0625 16.7812 17.8229 16.1875 16.7188 15C15.6146 13.8125 15.0625 12.3333 15.0625 10.5625C15.0625 8.375 15.7604 6.38542 17.1562 4.59375C18.5521 2.78125 20.5312 1.5 23.0938 0.75Z" fill="#165E95"/>
</svg>
