<svg width="22" height="50" viewBox="0 0 22 50" fill="none" xmlns="http://www.w3.org/2000/svg">
<path d="M10.637 31.911C7.81766 31.9086 5.11439 30.788 3.12025 28.795C1.12612 26.802 0.00397139 24.0993 0 21.28L0 10.632C0 7.81089 1.12068 5.10532 3.11551 3.1105C5.11033 1.11568 7.81589 -0.00500488 10.637 -0.00500488C13.4581 -0.00500488 16.1637 1.11568 18.1585 3.1105C20.1533 5.10532 21.274 7.81089 21.274 10.632V21.28C21.27 24.0993 20.1479 26.802 18.1537 28.795C16.1596 30.788 13.4563 31.9086 10.637 31.911ZM10.637 1.181C8.13089 1.18311 5.72796 2.17925 3.95541 3.95087C2.18286 5.72249 1.18544 8.12489 1.182 10.631V21.28C1.182 23.7877 2.1782 26.1928 3.95145 27.966C5.7247 29.7393 8.12975 30.7355 10.6375 30.7355C13.1453 30.7355 15.5503 29.7393 17.3235 27.966C19.0968 26.1928 20.093 23.7877 20.093 21.28V10.632C20.0896 8.12572 19.092 5.72316 17.3192 3.95152C15.5465 2.17987 13.1433 1.18385 10.637 1.182V1.181Z" fill="#7EC7FF"/>
<path d="M10.6369 3.54602C10.4802 3.54602 10.3298 3.60829 10.219 3.71912C10.1082 3.82995 10.0459 3.98028 10.0459 4.13702V9.48802C10.0459 9.64476 10.1082 9.79509 10.219 9.90592C10.3298 10.0168 10.4802 10.079 10.6369 10.079C10.7936 10.079 10.944 10.0168 11.0548 9.90592C11.1656 9.79509 11.2279 9.64476 11.2279 9.48802V4.13702C11.2279 3.98028 11.1656 3.82995 11.0548 3.71912C10.944 3.60829 10.7936 3.54602 10.6369 3.54602Z" fill="#7EC7FF"/>
<path d="M4.99023 44L10.4022 49.084L15.9902 44" stroke="#7EC7FF" stroke-miterlimit="10"/>
</svg>
